<mxfile host="app.diagrams.net" modified="2022-05-18T12:32:03.263Z" agent="5.0 (Macintosh; Intel Mac OS X 10_15_7) AppleWebKit/537.36 (KHTML, like Gecko) Chrome/101.0.4951.54 Safari/537.36" etag="KXJE42KU55tcB-aEw3K9" version="18.0.6" type="github">
  <diagram id="8cZIyfEbO-nk-H5uPiOq" name="Page-1">
    <mxGraphModel dx="1213" dy="647" grid="1" gridSize="10" guides="1" tooltips="1" connect="1" arrows="1" fold="1" page="1" pageScale="1" pageWidth="1169" pageHeight="827" math="0" shadow="0">
      <root>
        <mxCell id="0" />
        <mxCell id="1" parent="0" />
        <mxCell id="yBKDoW5o_K85H9uwSnSi-1" value="" style="rounded=1;whiteSpace=wrap;html=1;dashed=1;" vertex="1" parent="1">
          <mxGeometry x="630" y="60" width="470" height="300" as="geometry" />
        </mxCell>
        <mxCell id="7BoCNROPN6OZJxEyDvg5-37" value="" style="rounded=0;whiteSpace=wrap;html=1;opacity=50;" parent="1" vertex="1">
          <mxGeometry x="30" y="10" width="1090" height="440" as="geometry" />
        </mxCell>
        <mxCell id="7BoCNROPN6OZJxEyDvg5-29" value="" style="rounded=1;whiteSpace=wrap;html=1;opacity=50;dashed=1;" parent="1" vertex="1">
          <mxGeometry x="210" y="50" width="390" height="330" as="geometry" />
        </mxCell>
        <mxCell id="7BoCNROPN6OZJxEyDvg5-3" value="" style="edgeStyle=orthogonalEdgeStyle;rounded=0;orthogonalLoop=1;jettySize=auto;html=1;" parent="1" source="7BoCNROPN6OZJxEyDvg5-1" target="7BoCNROPN6OZJxEyDvg5-2" edge="1">
          <mxGeometry relative="1" as="geometry" />
        </mxCell>
        <mxCell id="7BoCNROPN6OZJxEyDvg5-1" value="Establish Cut-off Date" style="rounded=1;whiteSpace=wrap;html=1;" parent="1" vertex="1">
          <mxGeometry x="40" y="185" width="120" height="60" as="geometry" />
        </mxCell>
        <mxCell id="7BoCNROPN6OZJxEyDvg5-5" value="" style="edgeStyle=orthogonalEdgeStyle;rounded=0;orthogonalLoop=1;jettySize=auto;html=1;" parent="1" source="7BoCNROPN6OZJxEyDvg5-2" edge="1">
          <mxGeometry relative="1" as="geometry">
            <mxPoint x="440" y="215" as="targetPoint" />
          </mxGeometry>
        </mxCell>
        <mxCell id="7BoCNROPN6OZJxEyDvg5-2" value="Fetch Sellers with signup post cut-off." style="whiteSpace=wrap;html=1;rounded=1;" parent="1" vertex="1">
          <mxGeometry x="240" y="185" width="120" height="60" as="geometry" />
        </mxCell>
        <mxCell id="7BoCNROPN6OZJxEyDvg5-31" value="" style="edgeStyle=orthogonalEdgeStyle;rounded=0;orthogonalLoop=1;jettySize=auto;html=1;" parent="1" source="7BoCNROPN6OZJxEyDvg5-6" target="7BoCNROPN6OZJxEyDvg5-29" edge="1">
          <mxGeometry relative="1" as="geometry" />
        </mxCell>
        <mxCell id="7BoCNROPN6OZJxEyDvg5-6" value="Redshift" style="shape=cylinder3;whiteSpace=wrap;html=1;boundedLbl=1;backgroundOutline=1;size=15;" parent="1" vertex="1">
          <mxGeometry x="610" y="460" width="60" height="80" as="geometry" />
        </mxCell>
        <mxCell id="7BoCNROPN6OZJxEyDvg5-7" value="" style="endArrow=classic;html=1;rounded=0;" parent="1" edge="1">
          <mxGeometry width="50" height="50" relative="1" as="geometry">
            <mxPoint x="441" y="215" as="sourcePoint" />
            <mxPoint x="481" y="95" as="targetPoint" />
            <Array as="points">
              <mxPoint x="441" y="95" />
            </Array>
          </mxGeometry>
        </mxCell>
        <mxCell id="7BoCNROPN6OZJxEyDvg5-8" value="Recharge" style="rounded=0;whiteSpace=wrap;html=1;" parent="1" vertex="1">
          <mxGeometry x="481" y="75" width="100" height="40" as="geometry" />
        </mxCell>
        <mxCell id="7BoCNROPN6OZJxEyDvg5-9" value="Shipments" style="rounded=0;whiteSpace=wrap;html=1;" parent="1" vertex="1">
          <mxGeometry x="481" y="135" width="100" height="40" as="geometry" />
        </mxCell>
        <mxCell id="7BoCNROPN6OZJxEyDvg5-10" value="" style="endArrow=classic;html=1;rounded=0;entryX=0;entryY=0.5;entryDx=0;entryDy=0;" parent="1" target="7BoCNROPN6OZJxEyDvg5-9" edge="1">
          <mxGeometry width="50" height="50" relative="1" as="geometry">
            <mxPoint x="441" y="155" as="sourcePoint" />
            <mxPoint x="361" y="185" as="targetPoint" />
          </mxGeometry>
        </mxCell>
        <mxCell id="7BoCNROPN6OZJxEyDvg5-11" value="Order Composition" style="rounded=0;whiteSpace=wrap;html=1;" parent="1" vertex="1">
          <mxGeometry x="481" y="195" width="100" height="40" as="geometry" />
        </mxCell>
        <mxCell id="7BoCNROPN6OZJxEyDvg5-12" value="Pre-Weights" style="rounded=0;whiteSpace=wrap;html=1;" parent="1" vertex="1">
          <mxGeometry x="481" y="255" width="100" height="40" as="geometry" />
        </mxCell>
        <mxCell id="7BoCNROPN6OZJxEyDvg5-13" value="" style="endArrow=classic;html=1;rounded=0;entryX=0;entryY=0.5;entryDx=0;entryDy=0;" parent="1" target="7BoCNROPN6OZJxEyDvg5-12" edge="1">
          <mxGeometry width="50" height="50" relative="1" as="geometry">
            <mxPoint x="441" y="275" as="sourcePoint" />
            <mxPoint x="361" y="305" as="targetPoint" />
          </mxGeometry>
        </mxCell>
        <mxCell id="7BoCNROPN6OZJxEyDvg5-14" value="Address" style="rounded=0;whiteSpace=wrap;html=1;" parent="1" vertex="1">
          <mxGeometry x="481" y="315" width="100" height="40" as="geometry" />
        </mxCell>
        <mxCell id="7BoCNROPN6OZJxEyDvg5-15" value="" style="endArrow=classic;html=1;rounded=0;entryX=0;entryY=0.5;entryDx=0;entryDy=0;" parent="1" target="7BoCNROPN6OZJxEyDvg5-14" edge="1">
          <mxGeometry width="50" height="50" relative="1" as="geometry">
            <mxPoint x="441" y="335" as="sourcePoint" />
            <mxPoint x="361" y="365" as="targetPoint" />
          </mxGeometry>
        </mxCell>
        <mxCell id="7BoCNROPN6OZJxEyDvg5-16" value="" style="endArrow=none;html=1;rounded=0;" parent="1" edge="1">
          <mxGeometry width="50" height="50" relative="1" as="geometry">
            <mxPoint x="441" y="335" as="sourcePoint" />
            <mxPoint x="441" y="215" as="targetPoint" />
          </mxGeometry>
        </mxCell>
        <mxCell id="7BoCNROPN6OZJxEyDvg5-18" value="Data Extractions" style="text;html=1;strokeColor=none;fillColor=none;align=center;verticalAlign=middle;whiteSpace=wrap;rounded=0;opacity=20;" parent="1" vertex="1">
          <mxGeometry x="358" y="20" width="94" height="30" as="geometry" />
        </mxCell>
        <mxCell id="7BoCNROPN6OZJxEyDvg5-19" value="Thresholds&lt;br&gt;from&amp;nbsp;&lt;br&gt;Historical Frauds" style="rhombus;whiteSpace=wrap;html=1;" parent="1" vertex="1">
          <mxGeometry x="631" y="147.5" width="140" height="135" as="geometry" />
        </mxCell>
        <mxCell id="7BoCNROPN6OZJxEyDvg5-20" value="" style="endArrow=classic;html=1;rounded=0;exitX=1;exitY=0.5;exitDx=0;exitDy=0;entryX=0;entryY=0.5;entryDx=0;entryDy=0;" parent="1" target="7BoCNROPN6OZJxEyDvg5-19" edge="1">
          <mxGeometry width="50" height="50" relative="1" as="geometry">
            <mxPoint x="601" y="215" as="sourcePoint" />
            <mxPoint x="481" y="155" as="targetPoint" />
          </mxGeometry>
        </mxCell>
        <mxCell id="7BoCNROPN6OZJxEyDvg5-21" value="Build Flags using&lt;br&gt;thresholds" style="shape=process;whiteSpace=wrap;html=1;backgroundOutline=1;" parent="1" vertex="1">
          <mxGeometry x="801" y="185" width="120" height="60" as="geometry" />
        </mxCell>
        <mxCell id="7BoCNROPN6OZJxEyDvg5-22" value="" style="endArrow=classic;html=1;rounded=0;exitX=1;exitY=0.5;exitDx=0;exitDy=0;" parent="1" source="7BoCNROPN6OZJxEyDvg5-19" target="7BoCNROPN6OZJxEyDvg5-21" edge="1">
          <mxGeometry width="50" height="50" relative="1" as="geometry">
            <mxPoint x="621" y="195" as="sourcePoint" />
            <mxPoint x="671" y="145" as="targetPoint" />
          </mxGeometry>
        </mxCell>
        <mxCell id="7BoCNROPN6OZJxEyDvg5-33" value="" style="edgeStyle=orthogonalEdgeStyle;rounded=0;orthogonalLoop=1;jettySize=auto;html=1;strokeColor=#000000;" parent="1" source="7BoCNROPN6OZJxEyDvg5-23" target="7BoCNROPN6OZJxEyDvg5-32" edge="1">
          <mxGeometry relative="1" as="geometry" />
        </mxCell>
        <mxCell id="7BoCNROPN6OZJxEyDvg5-23" value="Allot Priority on each seller." style="shape=process;whiteSpace=wrap;html=1;backgroundOutline=1;" parent="1" vertex="1">
          <mxGeometry x="961" y="175" width="120" height="80" as="geometry" />
        </mxCell>
        <mxCell id="7BoCNROPN6OZJxEyDvg5-24" value="" style="endArrow=classic;html=1;rounded=0;exitX=1;exitY=0.5;exitDx=0;exitDy=0;" parent="1" source="7BoCNROPN6OZJxEyDvg5-21" target="7BoCNROPN6OZJxEyDvg5-23" edge="1">
          <mxGeometry width="50" height="50" relative="1" as="geometry">
            <mxPoint x="701" y="135" as="sourcePoint" />
            <mxPoint x="751" y="85" as="targetPoint" />
          </mxGeometry>
        </mxCell>
        <mxCell id="7BoCNROPN6OZJxEyDvg5-25" value="&lt;font style=&quot;font-size: 9px;&quot;&gt;Use Analytics and Business Insights simultaneously.&lt;/font&gt;" style="text;html=1;strokeColor=none;fillColor=none;align=center;verticalAlign=middle;whiteSpace=wrap;rounded=0;" parent="1" vertex="1">
          <mxGeometry x="951" y="135" width="140" height="30" as="geometry" />
        </mxCell>
        <mxCell id="7BoCNROPN6OZJxEyDvg5-28" value="" style="endArrow=classic;html=1;rounded=0;" parent="1" target="7BoCNROPN6OZJxEyDvg5-11" edge="1">
          <mxGeometry width="50" height="50" relative="1" as="geometry">
            <mxPoint x="440" y="215" as="sourcePoint" />
            <mxPoint x="570" y="180" as="targetPoint" />
          </mxGeometry>
        </mxCell>
        <mxCell id="7BoCNROPN6OZJxEyDvg5-35" value="" style="edgeStyle=orthogonalEdgeStyle;rounded=0;orthogonalLoop=1;jettySize=auto;html=1;strokeColor=#000000;" parent="1" source="7BoCNROPN6OZJxEyDvg5-32" target="7BoCNROPN6OZJxEyDvg5-34" edge="1">
          <mxGeometry relative="1" as="geometry" />
        </mxCell>
        <mxCell id="7BoCNROPN6OZJxEyDvg5-32" value="Append other seller details" style="whiteSpace=wrap;html=1;" parent="1" vertex="1">
          <mxGeometry x="961" y="282.5" width="120" height="60" as="geometry" />
        </mxCell>
        <mxCell id="7BoCNROPN6OZJxEyDvg5-40" value="" style="edgeStyle=orthogonalEdgeStyle;rounded=0;orthogonalLoop=1;jettySize=auto;html=1;strokeColor=#000000;" parent="1" source="7BoCNROPN6OZJxEyDvg5-34" target="7BoCNROPN6OZJxEyDvg5-39" edge="1">
          <mxGeometry relative="1" as="geometry" />
        </mxCell>
        <mxCell id="7BoCNROPN6OZJxEyDvg5-34" value="Upload to Google Sheet Dashboard." style="rectangle;whiteSpace=wrap;html=1;" parent="1" vertex="1">
          <mxGeometry x="961" y="380" width="120" height="60" as="geometry" />
        </mxCell>
        <mxCell id="7BoCNROPN6OZJxEyDvg5-38" value="Script on &lt;br&gt;EC2 or Lambda" style="text;html=1;strokeColor=none;fillColor=none;align=center;verticalAlign=middle;whiteSpace=wrap;rounded=0;opacity=50;" parent="1" vertex="1">
          <mxGeometry x="40" y="20" width="90" height="30" as="geometry" />
        </mxCell>
        <mxCell id="7BoCNROPN6OZJxEyDvg5-39" value="Final Action by Business Team" style="ellipse;whiteSpace=wrap;html=1;" parent="1" vertex="1">
          <mxGeometry x="761" y="380" width="120" height="60" as="geometry" />
        </mxCell>
        <mxCell id="yBKDoW5o_K85H9uwSnSi-2" value="Processing" style="text;html=1;strokeColor=none;fillColor=none;align=center;verticalAlign=middle;whiteSpace=wrap;rounded=0;dashed=1;" vertex="1" parent="1">
          <mxGeometry x="835" y="20" width="60" height="30" as="geometry" />
        </mxCell>
      </root>
    </mxGraphModel>
  </diagram>
</mxfile>
